HIERARCHY
ROOT Hip
{
  OFFSET 0.0 0.0 0.0
  CHANNELS 6 Xposition Yposition Zposition Xrotation Yrotation Zrotation
  JOINT LowerSpine
  {
    OFFSET 0.0 0.061367 -0.03653
    CHANNELS 3 Xrotation Yrotation Zrotation
    JOINT MiddleSpine
    {
      OFFSET 0.0 0.056002 0.002633
      CHANNELS 3 Xrotation Yrotation Zrotation
      JOINT Chest
      {
        OFFSET 0.0 0.069296 -0.013882
        CHANNELS 3 Xrotation Yrotation Zrotation
        JOINT Neck
        {
          OFFSET 0.0 0.156156 -0.002923
          CHANNELS 3 Xrotation Yrotation Zrotation
          JOINT Head
          {
            OFFSET 0.0 0.088183 0.023986
            CHANNELS 3 Xrotation Yrotation Zrotation
            End Site
            {
              OFFSET 1e-06 0.123215 0.003678
            }
          }
        }
        JOINT LClavicle
        {
          OFFSET 0.014189 0.150698 0.046467
          CHANNELS 3 Xrotation Yrotation Zrotation
          JOINT LShoulder
          {
            OFFSET 0.082893 0.021616 -0.034976
            CHANNELS 3 Xrotation Yrotation Zrotation
            JOINT LForearm
            {
              OFFSET 0.195645 -0.000695 -0.001695
              CHANNELS 3 Xrotation Yrotation Zrotation
              JOINT LHand
              {
                OFFSET 0.163209 0.000474 -0.000977
                CHANNELS 3 Xrotation Yrotation Zrotation
                End Site
                {
                  OFFSET 0.0 0.006864 0.0
                }
              }
            }
          }
        }
        JOINT RClavicle
        {
          OFFSET -0.014189 0.150698 0.046467
          CHANNELS 3 Xrotation Yrotation Zrotation
          JOINT RShoulder
          {
            OFFSET -0.082908 0.021619 -0.034982
            CHANNELS 3 Xrotation Yrotation Zrotation
            JOINT RForearm
            {
              OFFSET -0.195645 -0.000695 -0.001695
              CHANNELS 3 Xrotation Yrotation Zrotation
              JOINT RHand
              {
                OFFSET -0.163209 0.000474 -0.000977
                CHANNELS 3 Xrotation Yrotation Zrotation
                End Site
                {
                  OFFSET 0.0 0.006864 0.0
                }
              }
            }
          }
        }
      }
    }
  }
  JOINT RThigh
  {
    OFFSET -0.072558 0.02774 -0.005953
    CHANNELS 3 Xrotation Yrotation Zrotation
    JOINT RShin
    {
      OFFSET -0.005253 -0.285537 0.0
      CHANNELS 3 Xrotation Yrotation Zrotation
      JOINT RFoot
      {
        OFFSET 0.0 -0.28038 0.0
        CHANNELS 3 Xrotation Yrotation Zrotation
        JOINT RToe
        {
          OFFSET 0.0 -0.030816 0.064441
          CHANNELS 3 Xrotation Yrotation Zrotation
          End Site
          {
            OFFSET 0.0 0.0 0.043231
          }
        }
      }
    }
  }
  JOINT LThigh
  {
    OFFSET 0.072557 0.027741 -0.005953
    CHANNELS 3 Xrotation Yrotation Zrotation
    JOINT LShin
    {
      OFFSET 0.005253 -0.285539 0.0
      CHANNELS 3 Xrotation Yrotation Zrotation
      JOINT LFoot
      {
        OFFSET 0.0 -0.28038 0.0
        CHANNELS 3 Xrotation Yrotation Zrotation
        JOINT LToe
        {
          OFFSET 0.0 -0.030816 0.064441
          CHANNELS 3 Xrotation Yrotation Zrotation
          End Site
          {
            OFFSET 0.0 0.0 0.043231
          }
        }
      }
    }
  }
}
MOTION
Frames: 6
Frame Time: 0.03333333333333333
-0.030423 0.550997 -0.073599 -1.171383 -1.815583 2.371664 2.50746 -0.315136 -0.101735 -0.011179 1.360298 0.22597 -1.721116 5.380726 -1.142967 1.813662 0.395953 0.363966 0.038357 -0.179587 -0.034028 -1.343872 -1.561326 -9.26155 10.791859 -24.320801 -53.954067 7.280728 -48.439072 2.424295 0.07297 0.122869 -0.069828 -1.949453 1.062197 11.913238 -1.695273 37.003639 64.642517 3.00089 37.833145 1.553249 -0.155571 -0.091522 -0.013975 -12.015675 -2.581085 0.475354 17.90449 -1.257715 1.817215 -3.237072 0.360666 -0.12455 -0.085118 0.240111 0.118867 -3.269642 11.179255 3.686958 7.817976 7.477047 -5.992717 -2.690936 -0.013608 0.275671 0.078225 -0.076735 -0.022111 
-0.031352 0.551638 -0.075838 -1.122309 -1.874019 2.353647 2.557652 -0.321619 -0.122065 -0.087417 1.326738 0.254388 -2.084081 5.339894 -1.069721 1.844633 0.403027 0.385217 0.038031 -0.182314 -0.0335 -1.384255 -1.626668 -9.192668 10.806437 -24.239727 -54.297379 7.329534 -47.952316 2.345866 0.073073 0.124317 -0.069769 -1.990512 1.138186 11.883077 -1.76132 37.153774 64.897873 3.022086 36.703362 1.600406 -0.151983 -0.093071 -0.013696 -12.781507 -2.589835 0.364572 18.614662 -1.29117 1.9288 -3.308315 0.299454 -0.170101 -0.083764 0.237316 0.116879 -3.892045 10.92333 3.664271 7.78572 7.246718 -5.991343 -2.741961 -0.043859 0.252679 0.076807 -0.075992 -0.020874 
-0.032047 0.552576 -0.079105 -0.956233 -1.870058 2.305036 2.587114 -0.327608 -0.135453 -0.186849 1.274555 0.290032 -2.532009 5.259473 -1.027232 1.86889 0.406832 0.409505 0.037161 -0.18794 -0.033144 -1.424844 -1.717588 -9.099815 10.999329 -24.057037 -54.547867 7.573565 -47.815525 2.245857 0.072913 0.125973 -0.070096 -2.035638 1.234849 11.863395 -1.593063 37.288887 65.114479 3.183497 35.650753 1.674388 -0.15064 -0.092182 -0.01333 -13.815142 -2.585594 0.149973 19.35536 -1.330131 2.046848 -3.368779 0.214474 -0.22942 -0.082394 0.231708 0.114462 -4.745537 10.82174 3.660093 7.851432 7.12466 -6.02142 -2.79986 -0.081891 0.221602 0.074468 -0.075232 -0.01944 
-0.032227 0.55398 -0.083354 -0.503477 -1.84876 2.248659 2.587259 -0.328889 -0.13985 -0.310598 1.20482 0.326044 -3.123726 5.143373 -1.050398 1.875822 0.406344 0.4348 0.035703 -0.194527 -0.032698 -1.462402 -1.819037 -9.008877 11.40343 -23.798584 -54.714134 7.988684 -47.936184 2.076222 0.072725 0.128314 -0.07119 -2.072606 1.34334 11.859542 -1.192129 37.41468 65.347107 3.412823 34.689972 1.794056 -0.149405 -0.088056 -0.012673 -15.277219 -2.495235 -0.189094 20.130051 -1.348818 2.17117 -3.460059 0.10716 -0.295541 -0.079881 0.225606 0.110699 -6.040697 10.907918 3.688101 8.106262 7.173992 -6.089696 -2.869707 -0.127437 0.186205 0.070843 -0.074071 -0.017023 
-0.031967 0.556004 -0.087692 0.596048 -1.728576 2.271302 2.552656 -0.322037 -0.129059 -0.46931 1.1049 0.346478 -4.005562 5.00073 -1.205298 1.88696 0.404098 0.463086 0.032752 -0.200189 -0.030587 -1.512401 -1.900125 -8.962268 12.167318 -23.23605 -54.922024 8.423937 -48.109676 1.747641 0.071299 0.128083 -0.070784 -2.095856 1.489864 11.864496 -0.482137 37.201309 65.672707 3.551469 34.141506 2.091011 -0.153143 -0.073764 -0.011712 -17.365629 -2.223726 -0.585664 20.888992 -1.307728 2.277361 -3.717455 -0.014328 -0.350674 -0.084635 0.216462 0.104264 -8.245194 11.115304 3.649094 8.823997 7.369874 -6.134633 -2.930881 -0.178446 0.159813 0.066091 -0.071579 -0.013423 
-0.028557 0.554643 -0.096096 1.302378 -2.012905 2.333011 2.500297 -0.329211 -0.119025 -0.633837 1.001034 0.378293 -4.870465 4.803688 -1.263848 1.903373 0.394267 0.480723 0.031645 -0.197986 -0.028383 -1.575699 -1.966521 -8.999269 12.899111 -22.595848 -55.112423 8.651395 -48.448898 1.631978 0.068146 0.124261 -0.066393 -2.113078 1.634887 11.831847 0.4805 36.465755 65.729004 3.629672 34.861614 2.362254 -0.15467 -0.059127 -0.010791 -18.643152 -2.23494 -0.95508 20.982832 -1.376061 2.374801 -3.815682 -0.08545 -0.376243 -0.083394 0.202306 0.094886 -9.427852 11.177316 3.372529 8.829909 7.340335 -5.984859 -2.979082 -0.224014 0.142679 0.061568 -0.066983 -0.008477 
